# xmcd CD database file
# Copyright (C) 1996 Ti Kan
#
# Track frame offsets:
# 	180
# 	19498
# 	34478
# 	47895
# 	74547
# 	92366
# 	110132
# 	133872
# 	141412
# 	154671
# 	172035
# 	191438
# 	213430
# 	229747
#
# Disc length: 3233 seconds
#
# Revision: 1
# Processed by: cddbd v1.4b41PL1 Copyright (c) Steve Scherf et al.
# Submitted via: DiscPlay 3.4.1
#
DISCID=d50c9f0e
DTITLE=Johnny V's Blues Allstars - If My Daddy Could See Me Now
DYEAR=1900
DGENRE=
TTITLE0=As Long as I'm Movin
TTITLE1=Four Full Seasons of Love
TTITLE2=Maxine
TTITLE3=I Ain't Gonna Dust My Broom Again
TTITLE4=Don't Bother Me
TTITLE5=Walkin' Blues
TTITLE6=Next Time You See Me
TTITLE7=29 Ways
TTITLE8=Missin' the Flu?
TTITLE9=What's Up With You?
TTITLE10=Is This The Game To Play?
TTITLE11=You Belong To Me
TTITLE12=The Depression Blues
TTITLE13=Mail My Letter
EXTD=
EXTT0=
EXTT1=
EXTT2=
EXTT3=
EXTT4=
EXTT5=
EXTT6=
EXTT7=
EXTT8=
EXTT9=
EXTT10=
EXTT11=
EXTT12=
EXTT13=
PLAYORDER=
